<?xml version="1.0" encoding="utf-8"?>
<!-- Generator: Adobe Illustrator 23.0.4, SVG Export Plug-In . SVG Version: 6.00 Build 0)  -->
<svg version="1.1" id="logo" xmlns="http://www.w3.org/2000/svg" xmlns:xlink="http://www.w3.org/1999/xlink" x="0px" y="0px"
	 viewBox="0 0 286.2 63.6" style="enable-background:new 0 0 286.2 63.6;" xml:space="preserve">
<style type="text/css">
	.st0{fill:#E31B23;}
</style>
<g id="ageo_copy">
	<path class="st0" d="M30,23.1c0.2-0.4,0.4-0.8,0.8-0.7h6.9c0.4,0,0.7,0.3,0.8,0.7c0,0,0,0.1,0,0.1v34.9c0,0.4-0.4,0.8-0.8,0.8
		c0,0,0,0-0.1,0h-6.9c-0.4,0-0.7-0.3-0.8-0.8l-1.1-3.5c-2.5,3.3-6.5,5.2-10.7,5.1c-11,0.1-18.3-7.7-18.3-19s7.3-18.9,18.3-18.9
		c4.2-0.2,8.1,1.6,10.7,5L30,23.1z M18.7,49.7c5.5,0,9.1-3.6,9.2-9.1c0.2-4.8-3.5-8.9-8.3-9.1c-0.3,0-0.6,0-0.9,0
		c-5.4,0-9,3.6-9,9.1c-0.3,4.8,3.4,8.8,8.1,9.1C18.1,49.8,18.4,49.8,18.7,49.7L18.7,49.7z"/>
	<path class="st0" d="M56.9,58.1c0,0.4-0.3,0.7-0.7,0.8c0,0-0.1,0-0.1,0h-8.5c-0.4,0-0.8-0.3-0.8-0.8V4.6c0-0.4,0.3-0.7,0.7-0.8
		c0,0,0,0,0.1,0H56c0.4,0,0.8,0.2,0.8,0.7c0,0,0,0.1,0,0.1V58.1z"/>
	<path class="st0" d="M75.3,58.1c0,0.4-0.3,0.7-0.7,0.8c0,0-0.1,0-0.1,0H66c-0.4,0-0.8-0.3-0.8-0.8V4.6c0-0.4,0.3-0.7,0.7-0.8
		c0,0,0,0,0.1,0h8.4c0.4-0.1,0.8,0.2,0.8,0.6c0,0,0,0.1,0,0.1V58.1z"/>
	<path class="st0" d="M82.4,52.2l4.4-7.9c0.1-0.2,0.4-0.4,0.6-0.4c0.2,0,0.4,0.1,0.6,0.2c4.2,3.1,9.2,4.9,14.4,5
		c4.7,0,8.5-1.9,8.5-5.2c0-2.4-1.8-4.8-10.1-6.3c-12.2-2.2-18.1-6.8-18.4-15.9C82.2,12.2,89.9,5.2,102,5.3
		c8.9,0.1,15.1,3.7,16.5,5.1c0.3,0.3,0.4,0.7,0.2,1.1l-3.6,8.1c-0.2,0.3-0.3,0.5-0.5,0.5c-0.2,0-0.4-0.1-0.6-0.2
		c-3.7-2.7-8.2-4.1-12.8-4c-5,0-8.5,2.4-8.5,5.3c0,3.2,2.7,4.4,10.2,6.2c11.9,2.7,18,6.9,18.3,16.3s-7.4,16.2-19.8,16.1
		c-10-0.1-17.5-4.8-19.1-6.4c-0.3-0.2-0.4-0.6-0.2-0.9C82.3,52.3,82.3,52.3,82.4,52.2z"/>
	<path class="st0" d="M136,22.4c0.4-0.1,0.8,0.2,0.9,0.7c0,0,0,0.1,0,0.1l0.8,3.2c2.3-3.2,6-5,10-4.8c4.6-0.1,8.9,2.6,10.8,6.9
		c2.1-4.4,6.5-7.1,11.3-6.8c7.5,0,12.8,6.3,12.8,16.3v20.2c0.1,0.4-0.2,0.8-0.6,0.8c0,0-0.1,0-0.1,0h-8.4c-0.4,0-0.8-0.3-0.8-0.7
		c0-0.1,0-0.1,0-0.2V39.9c0-5.5-2-8.4-5.8-8.4c-3.6,0.1-6.3,3-6.4,10.5l0.1,16c0,0.4-0.2,0.8-0.7,0.8c0,0-0.1,0-0.1,0h-8.5
		c-0.4,0-0.8-0.4-0.8-0.8c0,0,0,0,0-0.1V39.9c0-5.5-2-8.4-5.8-8.4c-3.4,0.1-6,2.9-6.3,9.5v17.1c0,0.4-0.3,0.7-0.7,0.8
		c0,0-0.1,0-0.1,0h-8.5c-0.5,0-0.7-0.3-0.7-0.8l-0.1-34.9c0-0.4,0.4-0.8,0.8-0.8c0,0,0,0,0,0L136,22.4z"/>
	<path class="st0" d="M218.3,23.1c0.2-0.4,0.4-0.8,0.8-0.7h6.9c0.4,0,0.7,0.3,0.8,0.7c0,0,0,0.1,0,0.1v34.9c0,0.4-0.4,0.8-0.8,0.8
		c0,0,0,0-0.1,0H219c-0.5,0-0.7-0.3-0.8-0.8l-1.1-3.5c-2.5,3.3-6.5,5.3-10.7,5.1c-11,0.1-18.3-7.7-18.3-19s7.3-18.9,18.3-18.9
		c4.2-0.2,8.2,1.6,10.7,5L218.3,23.1z M206.9,49.7c5.5,0,9.1-3.6,9.2-9.1c0.2-4.8-3.5-8.9-8.3-9.1c-0.3,0-0.6,0-0.9,0
		c-5.4,0-9,3.6-9,9.1c-0.3,4.8,3.4,8.8,8.1,9.1C206.3,49.8,206.6,49.8,206.9,49.7L206.9,49.7z"/>
	<path class="st0" d="M250.8,31.7c-2.5,0.1-4.7,1.6-5.7,3.9v22.5c0,0.4-0.3,0.8-0.7,0.8c0,0-0.1,0-0.1,0h-8.4
		c-0.4,0-0.7-0.3-0.8-0.7c0,0,0,0,0-0.1L235,23.2c0-0.4,0.3-0.8,0.7-0.8c0,0,0.1,0,0.1,0h5.8c0.5,0,0.9,0.3,1.1,0.8l0.8,2.2
		c2.5-2.4,5.7-3.7,9.1-3.7c1.9,0,3.7,0.4,5.5,0.9c0.4,0.1,0.7,0.5,0.6,0.9c0,0,0,0.1,0,0.1l-2,8.8c-0.1,0.3-0.4,0.6-0.8,0.5
		c-0.1,0-0.3,0-0.4-0.1C254.1,32.2,252.4,31.8,250.8,31.7z"/>
	<path class="st0" d="M279.7,49.4c1-0.1,2-0.5,2.9-1.1c0.1-0.1,0.3-0.1,0.4-0.1c0.3,0,0.5,0.1,0.7,0.4l2.4,7.3
		c0.2,0.5,0.2,1-0.2,1.2c-2.4,1.6-5.2,2.5-8.1,2.4c-6.6,0-10.6-4.7-10.5-12.4V31.7h-4.5c-0.4,0-0.7-0.3-0.8-0.6c0,0,0,0,0-0.1v-7.8
		c0-0.4,0.3-0.7,0.7-0.8c0,0,0.1,0,0.1,0h4.5l0.1-10.9c0-0.5,0.2-0.8,0.7-0.8h8.3c0.4,0,0.7,0.3,0.8,0.7c0,0,0,0.1,0,0.1v10.9h6.9
		c0.4,0,0.7,0.3,0.8,0.7c0,0,0,0.1,0,0.1V31c0,0.4-0.3,0.7-0.7,0.7c0,0,0,0-0.1,0h-6.9v9.8C277,47.6,277.3,49.4,279.7,49.4z"/>
</g>
</svg>
